<svg xmlns="http://www.w3.org/2000/svg" width="1440" height="1000" viewBox="0 0 1440 1000" font-family="Inter, system-ui, sans-serif">
  <defs><filter id="sh" x="-20%" y="-20%" width="140%" height="140%"><feDropShadow dx="0" dy="2" stdDeviation="6" flood-color="#1c1917" flood-opacity="0.06"/></filter></defs>
  <rect width="1440" height="1000" fill="#ffffff"/>

  <!-- HEADER -->
  <rect width="1440" height="56" fill="#fff"/><line x1="0" y1="56" x2="1440" y2="56" stroke="#e7e5e4"/>
  <rect x="24" y="15" width="26" height="26" rx="8" fill="#4f46e5"/><g stroke="#fff" stroke-width="1.4" fill="none"><circle cx="37" cy="24" r="1.9"/><circle cx="31" cy="34" r="1.9"/><circle cx="43" cy="34" r="1.9"/><path d="M37 26l-6 7M37 26l6 7M31.6 34h10.8"/></g>
  <text x="60" y="33" font-size="12" fill="#a8a29e">Settings</text>
  <rect x="560" y="13" width="320" height="30" rx="8" fill="#f5f5f4" stroke="#e7e5e4"/><text x="578" y="32" font-size="12" fill="#a8a29e">Search across settings…  ⌘K</text>
  <circle cx="1360" cy="28" r="14" fill="#fafaf9" stroke="#e7e5e4"/><circle cx="1404" cy="28" r="15" fill="#eef2ff" stroke="#c7d2fe"/><text x="1404" y="32" text-anchor="middle" font-size="12" font-weight="600" fill="#4f46e5">NH</text>

  <text x="40" y="98" font-size="24" font-weight="700" fill="#1c1917">Global Settings &amp; Configuration</text>
  <text x="40" y="120" font-size="13" fill="#78716c">Self-hosted control center · policy-approved defaults · impact-aware changes.</text>

  <!-- LEFT NAV -->
  <g transform="translate(40,144)" font-size="12">
    <rect width="248" height="720" rx="14" fill="#fafaf9" stroke="#e7e5e4"/>
    <rect x="12" y="12" width="224" height="34" rx="9" fill="#eef2ff"/><text x="28" y="34" fill="#4f46e5" font-weight="600">LLM Providers &amp; Models</text>
    <text x="28" y="76" fill="#57534e">Credentials &amp; Secrets Vault</text>
    <text x="28" y="112" fill="#57534e">Integrations</text>
    <text x="28" y="148" fill="#57534e">Policies &amp; Guardrails</text>
    <text x="28" y="184" fill="#57534e">Defaults (Swarm / Common)</text>
    <text x="28" y="220" fill="#57534e">UI &amp; Preferences</text>
    <text x="28" y="256" fill="#57534e">Workspaces &amp; Access</text>
    <line x1="16" y1="284" x2="232" y2="284" stroke="#e7e5e4"/>
    <text x="28" y="312" fill="#a8a29e" font-size="10">Version pinning policy</text>
    <text x="28" y="336" fill="#a8a29e" font-size="10">Contribution defaults</text>
    <text x="28" y="360" fill="#a8a29e" font-size="10">A/B testing defaults</text>
  </g>

  <!-- CONTENT: Providers -->
  <g transform="translate(312,144)">
    <text x="0" y="14" font-size="16" font-weight="600" fill="#1c1917">LLM Providers &amp; Models</text>
    <text x="0" y="34" font-size="11" fill="#78716c">Configure providers, fetch models, test connections. Secrets stay server-side.</text>

    <!-- provider cards -->
    <g transform="translate(0,50)">
      <rect width="352" height="150" rx="14" fill="#fff" stroke="#e7e5e4" filter="url(#sh)"/>
      <rect x="20" y="20" width="40" height="40" rx="11" fill="#f5f5f4"/><text x="40" y="46" text-anchor="middle" font-size="16">✕</text>
      <text x="72" y="38" font-size="14" font-weight="600" fill="#1c1917">xAI · Grok</text>
      <rect x="72" y="46" width="96" height="20" rx="10" fill="#ecfdf5" stroke="#a7f3d0"/><circle cx="86" cy="56" r="3.5" fill="#10b981"/><text x="96" y="60" font-size="10" fill="#047857">Connected</text>
      <text x="20" y="92" font-size="11" fill="#78716c">Models: grok-3 · grok-3-mini · grok-vision</text>
      <rect x="20" y="106" width="120" height="28" rx="14" fill="#fff" stroke="#e7e5e4"/><text x="80" y="124" text-anchor="middle" font-size="11" fill="#57534e">Test connection</text>
      <rect x="150" y="106" width="90" height="28" rx="14" fill="#fff" stroke="#e7e5e4"/><text x="195" y="124" text-anchor="middle" font-size="11" fill="#57534e">Fetch models</text>
    </g>
    <g transform="translate(376,50)">
      <rect width="352" height="150" rx="14" fill="#fff" stroke="#e7e5e4" filter="url(#sh)"/>
      <rect x="20" y="20" width="40" height="40" rx="11" fill="#f5f5f4"/><text x="40" y="46" text-anchor="middle" font-size="14">◎</text>
      <text x="72" y="38" font-size="14" font-weight="600" fill="#1c1917">OpenAI</text>
      <rect x="72" y="46" width="96" height="20" rx="10" fill="#ecfdf5" stroke="#a7f3d0"/><circle cx="86" cy="56" r="3.5" fill="#10b981"/><text x="96" y="60" font-size="10" fill="#047857">Connected</text>
      <text x="20" y="92" font-size="11" fill="#78716c">Models: gpt-4o · gpt-4o-mini · o3</text>
      <rect x="20" y="106" width="120" height="28" rx="14" fill="#fff" stroke="#e7e5e4"/><text x="80" y="124" text-anchor="middle" font-size="11" fill="#57534e">Test connection</text>
      <rect x="150" y="106" width="90" height="28" rx="14" fill="#fff" stroke="#e7e5e4"/><text x="195" y="124" text-anchor="middle" font-size="11" fill="#57534e">Fetch models</text>
    </g>
    <g transform="translate(752,50)">
      <rect width="336" height="150" rx="14" fill="#fff" stroke="#e7e5e4" filter="url(#sh)"/>
      <rect x="20" y="20" width="40" height="40" rx="11" fill="#f5f5f4"/><text x="40" y="46" text-anchor="middle" font-size="14">⧉</text>
      <text x="72" y="38" font-size="14" font-weight="600" fill="#1c1917">Local / Ollama</text>
      <rect x="72" y="46" width="96" height="20" rx="10" fill="#fefce8" stroke="#fde68a"/><circle cx="86" cy="56" r="3.5" fill="#eab308"/><text x="96" y="60" font-size="10" fill="#a16207">Degraded</text>
      <text x="20" y="92" font-size="11" fill="#78716c">Models: llama-3.3 · qwen-2.5</text>
      <rect x="20" y="106" width="120" height="28" rx="14" fill="#fff" stroke="#e7e5e4"/><text x="80" y="124" text-anchor="middle" font-size="11" fill="#57534e">Test connection</text>
      <rect x="150" y="106" width="90" height="28" rx="14" fill="#1c1917"/><text x="195" y="124" text-anchor="middle" font-size="11" fill="#fff">+ Add provider</text>
    </g>

    <!-- Secrets vault preview -->
    <text x="0" y="248" font-size="16" font-weight="600" fill="#1c1917">Credentials &amp; Secrets Vault</text>
    <g transform="translate(0,264)">
      <rect width="1088" height="150" rx="14" fill="#fff" stroke="#e7e5e4" filter="url(#sh)"/>
      <g font-size="10" fill="#a8a29e"><text x="20" y="28">NAME</text><text x="320" y="28">SCOPE</text><text x="560" y="28">VALUE</text><text x="800" y="28">ADDED</text><text x="960" y="28">ACTIONS</text></g>
      <line x1="16" y1="36" x2="1072" y2="36" stroke="#f5f5f4"/>
      <g font-size="11" fill="#44403c">
        <g transform="translate(0,46)"><text x="20" y="16" fill="#1c1917" font-weight="500">XAI_API_KEY</text><text x="320" y="16">Global</text><text x="560" y="16" font-family="ui-monospace,monospace" fill="#a8a29e">•••••••• (hidden)</text><text x="800" y="16">2026-06-01</text><text x="960" y="16" fill="#4f46e5">Reveal · Rotate</text><line x1="16" y1="30" x2="1072" y2="30" stroke="#f5f5f4"/></g>
        <g transform="translate(0,84)"><text x="20" y="16" fill="#1c1917" font-weight="500">STRAPI_TOKEN</text><text x="320" y="16">Trading Lab</text><text x="560" y="16" font-family="ui-monospace,monospace" fill="#a8a29e">•••••••• (hidden)</text><text x="800" y="16">2026-06-14</text><text x="960" y="16" fill="#4f46e5">Reveal · Rotate</text></g>
      </g>
      <text x="20" y="140" font-size="10" fill="#a8a29e">Values never shown to browser after save · reveal is audit-logged · never stored plaintext client-side.</text>
    </g>

    <!-- Policy impact warning -->
    <g transform="translate(0,438)">
      <rect width="1088" height="130" rx="14" fill="#fffbeb" stroke="#fde68a"/>
      <path d="M40 30l14 24H26z" fill="none" stroke="#d97706" stroke-width="1.6"/><text x="40" y="50" text-anchor="middle" font-size="10" fill="#d97706">!</text>
      <text x="72" y="34" font-size="13" font-weight="600" fill="#b45309">Policy change impact</text>
      <text x="72" y="56" font-size="12" fill="#57534e">Changing "require human review for agent improvements" affects <tspan font-weight="600" fill="#1c1917">14 running swarms</tspan>.</text>
      <rect x="72" y="72" width="200" height="34" rx="17" fill="#1c1917"/><text x="172" y="94" text-anchor="middle" font-size="12" fill="#fff">Apply to all my swarms</text>
      <rect x="284" y="72" width="200" height="34" rx="17" fill="#fff" stroke="#e7e5e4"/><text x="384" y="94" text-anchor="middle" font-size="12" fill="#57534e">Apply only to selected</text>
    </g>

    <!-- workspace member table -->
    <text x="0" y="610" font-size="16" font-weight="600" fill="#1c1917">Workspaces &amp; Access Control</text>
    <g transform="translate(0,626)">
      <rect width="1088" height="150" rx="14" fill="#fff" stroke="#e7e5e4" filter="url(#sh)"/>
      <g font-size="10" fill="#a8a29e"><text x="20" y="28">MEMBER</text><text x="400" y="28">ROLE (Keycloak)</text><text x="700" y="28">WORKSPACES</text><text x="960" y="28">ACTIONS</text></g>
      <line x1="16" y1="36" x2="1072" y2="36" stroke="#f5f5f4"/>
      <g transform="translate(0,46)"><circle cx="34" cy="12" r="12" fill="#eef2ff"/><text x="34" y="16" text-anchor="middle" font-size="10" fill="#4f46e5">NH</text><text x="56" y="16" fill="#1c1917" font-weight="500">Nicholas Hui</text><rect x="400" y="2" width="80" height="18" rx="9" fill="#1c1917"/><text x="440" y="15" text-anchor="middle" font-size="9" fill="#fff">Owner</text><text x="700" y="16">All (4)</text><text x="960" y="16" fill="#4f46e5">Manage</text><line x1="16" y1="30" x2="1072" y2="30" stroke="#f5f5f4"/></g>
      <g transform="translate(0,84)"><circle cx="34" cy="12" r="12" fill="#f5f5f4"/><text x="34" y="16" text-anchor="middle" font-size="10" fill="#57534e">AL</text><text x="56" y="16" fill="#1c1917" font-weight="500">Ava Lin</text><rect x="400" y="2" width="86" height="18" rx="9" fill="#eef2ff" stroke="#c7d2fe"/><text x="443" y="15" text-anchor="middle" font-size="9" fill="#4f46e5">Maintainer</text><text x="700" y="16">Trading, Content</text><text x="960" y="16" fill="#4f46e5">Manage</text></g>
      <rect x="20" y="116" width="150" height="26" rx="13" fill="#1c1917"/><text x="95" y="133" text-anchor="middle" font-size="11" fill="#fff">+ Invite member</text>
    </g>
  </g>
  <a href="ui_00_menu.svg" target="_top" aria-label="Open application menu"><title>Open application menu</title><rect x="16" y="8" width="100" height="42" fill="transparent" pointer-events="all"/></a>
</svg>
