<svg xmlns="http://www.w3.org/2000/svg" width="1440" height="1140" viewBox="0 0 1440 1140" font-family="Inter, system-ui, sans-serif">
  <defs><filter id="sh" x="-20%" y="-20%" width="140%" height="140%"><feDropShadow dx="0" dy="2" stdDeviation="6" flood-color="#1c1917" flood-opacity="0.06"/></filter></defs>
  <rect width="1440" height="1140" fill="#ffffff"/>

  <!-- HEADER -->
  <rect width="1440" height="56" fill="#fff"/><line x1="0" y1="56" x2="1440" y2="56" stroke="#e7e5e4"/>
  <rect x="24" y="15" width="26" height="26" rx="8" fill="#4f46e5"/><g stroke="#fff" stroke-width="1.4" fill="none"><circle cx="37" cy="24" r="1.9"/><circle cx="31" cy="34" r="1.9"/><circle cx="43" cy="34" r="1.9"/><path d="M37 26l-6 7M37 26l6 7M31.6 34h10.8"/></g>
  <rect x="72" y="14" width="150" height="28" rx="8" fill="#fafaf9" stroke="#e7e5e4"/><circle cx="88" cy="28" r="4" fill="#4f46e5"/><text x="100" y="32" font-size="12" fill="#44403c">Trading Lab</text>
  <circle cx="1360" cy="28" r="14" fill="#fafaf9" stroke="#e7e5e4"/><circle cx="1404" cy="28" r="15" fill="#eef2ff" stroke="#c7d2fe"/><text x="1404" y="32" text-anchor="middle" font-size="12" font-weight="600" fill="#4f46e5">NH</text>

  <!-- title + search -->
  <text x="40" y="98" font-size="28" font-weight="700" fill="#1c1917">Common Registry</text>
  <text x="40" y="122" font-size="13" fill="#78716c">Battle-tested, versioned, collectively improved agents &amp; swarm patterns.</text>
  <rect x="40" y="140" width="900" height="42" rx="12" fill="#fff" stroke="#e7e5e4" filter="url(#sh)"/>
  <circle cx="64" cy="161" r="7" fill="none" stroke="#a8a29e" stroke-width="1.6"/><path d="M69 166l5 5" stroke="#a8a29e" stroke-width="1.6"/>
  <text x="84" y="166" font-size="13" fill="#a8a29e">Search agents, patterns, or describe what you need…</text>
  <rect x="956" y="140" width="130" height="42" rx="12" fill="#fff" stroke="#e7e5e4"/><text x="1021" y="166" text-anchor="middle" font-size="12" fill="#57534e">My Contributions</text>
  <rect x="1098" y="140" width="140" height="42" rx="12" fill="#fff" stroke="#ddd6fe"/><text x="1168" y="166" text-anchor="middle" font-size="12" fill="#7c3aed">Pending Proposals</text>
  <rect x="1250" y="140" width="150" height="42" rx="12" fill="#1c1917"/><text x="1325" y="166" text-anchor="middle" font-size="12" fill="#fff">✧ Suggest New</text>

  <!-- facets -->
  <g transform="translate(40,198)" font-size="10" fill="#57534e">
    <rect width="60" height="24" rx="12" fill="#eef2ff" stroke="#c7d2fe"/><text x="30" y="16" text-anchor="middle" fill="#4f46e5">Trading</text>
    <rect x="68" width="64" height="24" rx="12" fill="#fff" stroke="#e7e5e4"/><text x="100" y="16" text-anchor="middle">Content</text>
    <rect x="140" width="76" height="24" rx="12" fill="#fff" stroke="#e7e5e4"/><text x="178" y="16" text-anchor="middle">Education</text>
    <rect x="224" width="80" height="24" rx="12" fill="#fff" stroke="#e7e5e4"/><text x="264" y="16" text-anchor="middle">Distributed</text>
    <rect x="312" width="110" height="24" rx="12" fill="#fff" stroke="#e7e5e4"/><text x="367" y="16" text-anchor="middle">Success rate &gt; 90%</text>
    <rect x="430" width="120" height="24" rx="12" fill="#fff" stroke="#e7e5e4"/><text x="490" y="16" text-anchor="middle">Used in my swarms</text>
    <rect x="558" width="100" height="24" rx="12" fill="#fff" stroke="#e7e5e4"/><text x="608" y="16" text-anchor="middle">High Verification</text>
    <text x="1310" y="16" text-anchor="end" fill="#a8a29e">Cards ▾ | Table | Graph viz</text>
  </g>

  <!-- ===== CARD GRID (agents) ===== -->
  <text x="40" y="256" font-size="12" font-weight="700" letter-spacing="1" fill="#a8a29e">COMMON AGENTS</text>
  <g transform="translate(40,268)">
    <!-- card template x3 -->
    <g>
      <rect width="316" height="228" rx="16" fill="#fff" stroke="#e7e5e4" filter="url(#sh)"/>
      <rect x="16" y="16" width="40" height="40" rx="11" fill="#eef2ff" stroke="#c7d2fe"/><circle cx="36" cy="36" r="9" fill="none" stroke="#4f46e5" stroke-width="1.5"/>
      <text x="68" y="30" font-size="14" font-weight="600" fill="#1c1917">MarketSentimentAgent</text>
      <rect x="68" y="38" width="120" height="18" rx="9" fill="#eef2ff"/><text x="76" y="51" font-size="9" font-family="ui-monospace,monospace" fill="#4338ca">Common v2.3 · 12.4k · 94%</text>
      <text x="16" y="82" font-size="10" fill="#78716c">Specialized for trading sentiment analysis — standardized I/O.</text>
      <!-- metrics -->
      <g transform="translate(16,94)">
        <rect width="90" height="44" rx="8" fill="#fafaf9" stroke="#f5f5f4"/><text x="45" y="18" text-anchor="middle" font-size="9" fill="#a8a29e">Success</text><text x="45" y="36" text-anchor="middle" font-size="13" font-weight="600" fill="#059669">94%</text>
        <rect x="98" width="90" height="44" rx="8" fill="#fafaf9" stroke="#f5f5f4"/><text x="143" y="18" text-anchor="middle" font-size="9" fill="#a8a29e">Avg tok</text><text x="143" y="36" text-anchor="middle" font-size="13" font-weight="600" fill="#1c1917">1.2k</text>
        <rect x="196" width="88" height="44" rx="8" fill="#fafaf9" stroke="#f5f5f4"/><text x="240" y="18" text-anchor="middle" font-size="9" fill="#a8a29e">Latency</text><text x="240" y="36" text-anchor="middle" font-size="13" font-weight="600" fill="#1c1917">1.4s</text>
      </g>
      <text x="16" y="158" font-size="9" fill="#78716c">Used in 1,248 swarms · 23 of yours · +8% efficiency ↑</text>
      <g transform="translate(16,166)" font-size="8">
        <rect width="72" height="18" rx="9" fill="#e0f2fe" stroke="#bae6fd"/><text x="36" y="12" text-anchor="middle" fill="#0369a1">High Verify</text>
        <rect x="80" width="88" height="18" rx="9" fill="#f5f5f4" stroke="#e7e5e4"/><text x="124" y="12" text-anchor="middle" fill="#57534e">Moltbot Compat</text>
        <rect x="176" width="100" height="18" rx="9" fill="#f5f3ff" stroke="#ddd6fe"/><text x="226" y="12" text-anchor="middle" fill="#7c3aed">Recently Improved</text>
      </g>
      <rect x="16" y="192" width="120" height="26" rx="13" fill="#1c1917"/><text x="76" y="209" text-anchor="middle" font-size="10" fill="#fff">Add to Swarm</text>
      <rect x="144" y="192" width="80" height="26" rx="13" fill="#fff" stroke="#ddd6fe"/><text x="184" y="209" text-anchor="middle" font-size="10" fill="#7c3aed">Propose</text>
      <rect x="232" y="192" width="52" height="26" rx="13" fill="#fff" stroke="#e7e5e4"/><text x="258" y="209" text-anchor="middle" font-size="10" fill="#57534e">Detail</text>
    </g>
    <!-- card 2 -->
    <g transform="translate(348,0)">
      <rect width="316" height="228" rx="16" fill="#fff" stroke="#e7e5e4" filter="url(#sh)"/>
      <rect x="16" y="16" width="40" height="40" rx="11" fill="#eef2ff" stroke="#c7d2fe"/><circle cx="36" cy="36" r="9" fill="none" stroke="#4f46e5" stroke-width="1.5"/>
      <text x="68" y="30" font-size="14" font-weight="600" fill="#1c1917">ContentDirectorAgent</text>
      <rect x="68" y="38" width="120" height="18" rx="9" fill="#eef2ff"/><text x="76" y="51" font-size="9" font-family="ui-monospace,monospace" fill="#4338ca">Common v1.8 · 8.7k · 91%</text>
      <text x="16" y="82" font-size="10" fill="#78716c">Creative strategy for cinematic / YouTube pipelines.</text>
      <g transform="translate(16,94)">
        <rect width="90" height="44" rx="8" fill="#fafaf9" stroke="#f5f5f4"/><text x="45" y="18" text-anchor="middle" font-size="9" fill="#a8a29e">Success</text><text x="45" y="36" text-anchor="middle" font-size="13" font-weight="600" fill="#059669">91%</text>
        <rect x="98" width="90" height="44" rx="8" fill="#fafaf9" stroke="#f5f5f4"/><text x="143" y="18" text-anchor="middle" font-size="9" fill="#a8a29e">Avg tok</text><text x="143" y="36" text-anchor="middle" font-size="13" font-weight="600" fill="#1c1917">2.1k</text>
        <rect x="196" width="88" height="44" rx="8" fill="#fafaf9" stroke="#f5f5f4"/><text x="240" y="18" text-anchor="middle" font-size="9" fill="#a8a29e">Latency</text><text x="240" y="36" text-anchor="middle" font-size="13" font-weight="600" fill="#1c1917">2.8s</text>
      </g>
      <text x="16" y="158" font-size="9" fill="#78716c">Used in 640 swarms · 5 of yours · +5% quality ↑</text>
      <g transform="translate(16,166)" font-size="8">
        <rect width="66" height="18" rx="9" fill="#fef2f2" stroke="#fecaca"/><text x="33" y="12" text-anchor="middle" fill="#dc2626">Creative</text>
        <rect x="74" width="90" height="18" rx="9" fill="#f5f5f4" stroke="#e7e5e4"/><text x="119" y="12" text-anchor="middle" fill="#57534e">Bilingual EN/中</text>
      </g>
      <rect x="16" y="192" width="120" height="26" rx="13" fill="#1c1917"/><text x="76" y="209" text-anchor="middle" font-size="10" fill="#fff">Add to Swarm</text>
      <rect x="144" y="192" width="80" height="26" rx="13" fill="#fff" stroke="#ddd6fe"/><text x="184" y="209" text-anchor="middle" font-size="10" fill="#7c3aed">Propose</text>
      <rect x="232" y="192" width="52" height="26" rx="13" fill="#fff" stroke="#e7e5e4"/><text x="258" y="209" text-anchor="middle" font-size="10" fill="#57534e">Detail</text>
    </g>
    <!-- card 3 (new) -->
    <g transform="translate(696,0)">
      <rect width="316" height="228" rx="16" fill="#fff" stroke="#c7d2fe" filter="url(#sh)"/>
      <rect x="16" y="16" width="40" height="40" rx="11" fill="#ecfdf5" stroke="#a7f3d0"/><path d="M28 36l5 5 10-10" stroke="#059669" stroke-width="1.8" fill="none"/>
      <text x="68" y="30" font-size="14" font-weight="600" fill="#1c1917">VerificationLoopAgent</text>
      <rect x="238" y="16" width="40" height="18" rx="9" fill="#ecfdf5" stroke="#a7f3d0"/><text x="258" y="29" text-anchor="middle" font-size="9" fill="#047857">New</text>
      <rect x="68" y="38" width="120" height="18" rx="9" fill="#eef2ff"/><text x="76" y="51" font-size="9" font-family="ui-monospace,monospace" fill="#4338ca">Common v3.0 · 31.2k · 97%</text>
      <text x="16" y="82" font-size="10" fill="#78716c">Output verification — iterative refine loop, top pass rate.</text>
      <g transform="translate(16,94)">
        <rect width="90" height="44" rx="8" fill="#fafaf9" stroke="#f5f5f4"/><text x="45" y="18" text-anchor="middle" font-size="9" fill="#a8a29e">Success</text><text x="45" y="36" text-anchor="middle" font-size="13" font-weight="600" fill="#059669">97%</text>
        <rect x="98" width="90" height="44" rx="8" fill="#fafaf9" stroke="#f5f5f4"/><text x="143" y="18" text-anchor="middle" font-size="9" fill="#a8a29e">Avg tok</text><text x="143" y="36" text-anchor="middle" font-size="13" font-weight="600" fill="#1c1917">640</text>
        <rect x="196" width="88" height="44" rx="8" fill="#fafaf9" stroke="#f5f5f4"/><text x="240" y="18" text-anchor="middle" font-size="9" fill="#a8a29e">Latency</text><text x="240" y="36" text-anchor="middle" font-size="13" font-weight="600" fill="#1c1917">0.9s</text>
      </g>
      <text x="16" y="158" font-size="9" fill="#78716c">Used in 47 swarms · 8 of yours · +12% pass rate ↑</text>
      <g transform="translate(16,166)" font-size="8">
        <rect width="72" height="18" rx="9" fill="#e0f2fe" stroke="#bae6fd"/><text x="36" y="12" text-anchor="middle" fill="#0369a1">High Verify</text>
        <rect x="80" width="80" height="18" rx="9" fill="#eef2ff" stroke="#c7d2fe"/><text x="120" y="12" text-anchor="middle" fill="#4f46e5">Parallel Opt.</text>
      </g>
      <rect x="16" y="192" width="120" height="26" rx="13" fill="#1c1917"/><text x="76" y="209" text-anchor="middle" font-size="10" fill="#fff">Add to Swarm</text>
      <rect x="144" y="192" width="80" height="26" rx="13" fill="#fff" stroke="#ddd6fe"/><text x="184" y="209" text-anchor="middle" font-size="10" fill="#7c3aed">Propose</text>
      <rect x="232" y="192" width="52" height="26" rx="13" fill="#fff" stroke="#e7e5e4"/><text x="258" y="209" text-anchor="middle" font-size="10" fill="#57534e">Detail</text>
    </g>
  </g>

  <!-- ===== STATS SIDEBAR ===== -->
  <g transform="translate(1076,268)">
    <rect width="324" height="228" rx="16" fill="#fafaf9" stroke="#e7e5e4"/>
    <text x="20" y="30" font-size="13" font-weight="600" fill="#1c1917">Registry Stats</text>
    <g transform="translate(20,44)">
      <rect width="140" height="52" rx="10" fill="#fff" stroke="#e7e5e4"/><text x="12" y="22" font-size="9" fill="#78716c">Total Commons</text><text x="12" y="42" font-size="18" font-weight="700" fill="#1c1917">312</text>
      <rect x="148" width="136" height="52" rx="10" fill="#fff" stroke="#e7e5e4"/><text x="160" y="22" font-size="9" fill="#78716c">Active versions</text><text x="160" y="42" font-size="18" font-weight="700" fill="#1c1917">87</text>
    </g>
    <g transform="translate(20,104)">
      <rect width="140" height="52" rx="10" fill="#fff" stroke="#e7e5e4"/><text x="12" y="22" font-size="9" fill="#78716c">Merged /mo</text><text x="12" y="42" font-size="18" font-weight="700" fill="#7c3aed">14</text>
      <rect x="148" width="136" height="52" rx="10" fill="#fff" stroke="#e7e5e4"/><text x="160" y="22" font-size="9" fill="#78716c">Eco savings</text><text x="160" y="42" font-size="18" font-weight="700" fill="#059669">$8.2k</text>
    </g>
    <rect x="20" y="168" width="284" height="44" rx="10" fill="#f5f3ff" stroke="#ddd6fe"/>
    <text x="32" y="188" font-size="10" font-weight="600" fill="#6d28d9">Your Impact</text>
    <text x="32" y="204" font-size="9" fill="#57534e">4 improvements helped · $412 saved in your swarms</text>
  </g>

  <!-- ===== PATTERN SECTION ===== -->
  <text x="40" y="548" font-size="12" font-weight="700" letter-spacing="1" fill="#a8a29e">CORE COMMON SWARM PATTERNS</text>
  <g transform="translate(40,560)">
    <!-- pattern card 1 -->
    <g><rect width="316" height="180" rx="16" fill="#fff" stroke="#c7d2fe" filter="url(#sh)"/>
      <text x="16" y="34" font-size="18" fill="#4f46e5">⊞</text><text x="42" y="34" font-size="14" font-weight="600" fill="#1c1917">Parallel Independent</text>
      <rect x="16" y="46" width="284" height="58" rx="10" fill="#fafaf9" stroke="#e7e5e4"/>
      <g transform="translate(40,60)"><rect width="34" height="30" rx="7" fill="#eef2ff" stroke="#c7d2fe"/><rect x="46" width="34" height="30" rx="7" fill="#eef2ff" stroke="#c7d2fe"/><rect x="92" width="34" height="30" rx="7" fill="#eef2ff" stroke="#c7d2fe"/><path d="M126 15h30" stroke="#d6d3d1"/><rect x="156" width="46" height="30" rx="7" fill="#ecfdf5" stroke="#a7f3d0"/></g>
      <text x="16" y="126" font-size="10" fill="#78716c">BIG ROWs · map-reduce · scale-out.</text>
      <text x="16" y="144" font-size="10" fill="#059669">92% · 234 swarms · 3.2k avg</text>
      <rect x="16" y="150" width="130" height="24" rx="12" fill="#1c1917"/><text x="81" y="166" text-anchor="middle" font-size="10" fill="#fff">Instantiate in Canvas</text>
    </g>
    <!-- pattern card 2 -->
    <g transform="translate(348,0)"><rect width="316" height="180" rx="16" fill="#fff" stroke="#a7f3d0" filter="url(#sh)"/>
      <text x="16" y="34" font-size="18" fill="#059669">↻</text><text x="42" y="34" font-size="14" font-weight="600" fill="#1c1917">Verification Loop</text>
      <rect x="16" y="46" width="284" height="58" rx="10" fill="#fafaf9" stroke="#e7e5e4"/>
      <g transform="translate(60,60)"><rect width="60" height="30" rx="7" fill="#f5f5f4" stroke="#e7e5e4"/><text x="30" y="20" text-anchor="middle" font-size="9" fill="#78716c">Agent</text><path d="M60 15h20" stroke="#d6d3d1"/><rect x="80" width="60" height="30" rx="7" fill="#ecfdf5" stroke="#a7f3d0"/><text x="110" y="20" text-anchor="middle" font-size="9" fill="#059669">Verify</text><text x="146" y="20" font-size="16" fill="#10b981">↺</text></g>
      <text x="16" y="126" font-size="10" fill="#78716c">Self-refine until quality passes.</text>
      <text x="16" y="144" font-size="10" fill="#059669">97% · 189 swarms · 1.8k avg</text>
      <rect x="16" y="150" width="130" height="24" rx="12" fill="#047857"/><text x="81" y="166" text-anchor="middle" font-size="10" fill="#fff">Instantiate in Canvas</text>
    </g>
    <!-- pattern card 3 -->
    <g transform="translate(696,0)"><rect width="316" height="180" rx="16" fill="#fff" stroke="#ddd6fe" filter="url(#sh)"/>
      <text x="16" y="34" font-size="16" fill="#7c3aed">◇</text><text x="42" y="34" font-size="14" font-weight="600" fill="#1c1917">Dynamic Router Graph</text>
      <rect x="16" y="46" width="284" height="58" rx="10" fill="#fafaf9" stroke="#e7e5e4"/>
      <g transform="translate(60,58)"><rect width="30" height="30" rx="6" fill="#f5f3ff" stroke="#ddd6fe" transform="rotate(45 15 15)"/><text x="15" y="20" text-anchor="middle" font-size="10" fill="#7c3aed">◇</text><rect x="120" y="0" width="50" height="14" rx="6" fill="#f5f5f4"/><text x="145" y="11" text-anchor="middle" font-size="8" fill="#78716c">→ B1</text><rect x="120" y="20" width="50" height="14" rx="6" fill="#f5f5f4"/><text x="145" y="31" text-anchor="middle" font-size="8" fill="#78716c">→ B2</text></g>
      <text x="16" y="126" font-size="10" fill="#78716c">LLM router picks next node dynamically.</text>
      <text x="16" y="144" font-size="10" fill="#059669">89% · 112 swarms · 2.4k avg</text>
      <rect x="16" y="150" width="130" height="24" rx="12" fill="#7c3aed"/><text x="81" y="166" text-anchor="middle" font-size="10" fill="#fff">Instantiate in Canvas</text>
    </g>
    <!-- governance mini -->
    <g transform="translate(1036,0)">
      <rect width="324" height="180" rx="16" fill="#fafaf9" stroke="#e7e5e4"/>
      <text x="20" y="30" font-size="13" font-weight="600" fill="#1c1917">Pending Proposals</text>
      <rect x="20" y="42" width="284" height="60" rx="10" fill="#fff" stroke="#ddd6fe"/>
      <text x="34" y="62" font-size="11" font-weight="600" fill="#6d28d9">CommonReportAgent → v3.0</text>
      <text x="34" y="78" font-size="9" fill="#78716c">meta-critic · 2.1k traces · +18% ↓ hallucination</text>
      <rect x="34" y="82" width="70" height="16" rx="8" fill="#1c1917"/><text x="69" y="94" text-anchor="middle" font-size="9" fill="#fff">Review &amp; Merge</text>
      <rect x="20" y="112" width="284" height="52" rx="10" fill="#fff" stroke="#e7e5e4"/>
      <text x="34" y="132" font-size="11" font-weight="600" fill="#1c1917">CommonMarketPredictor → v2.5</text>
      <text x="34" y="148" font-size="9" fill="#78716c">by @you · awaiting review · affects 19 swarms</text>
    </g>
  </g>

  <!-- Proposal review modal preview -->
  <text x="40" y="800" font-size="14" font-weight="600" fill="#1c1917">Proposal Review — Diff + Impact Analysis</text>
  <g transform="translate(40,816)">
    <rect width="1360" height="280" rx="16" fill="#fff" stroke="#e7e5e4" filter="url(#sh)"/>
    <!-- diff panel -->
    <text x="24" y="34" font-size="12" font-weight="600" fill="#57534e">Spec Diff (redacted)</text>
    <rect x="24" y="44" width="640" height="210" rx="10" fill="#0f172a"/>
    <g font-family="ui-monospace,monospace" font-size="11">
      <rect x="24" y="70" width="640" height="20" fill="#7f1d1d" opacity="0.4"/><text x="40" y="84" fill="#fca5a5">- max_iterations: 3</text>
      <rect x="24" y="92" width="640" height="20" fill="#14532d" opacity="0.4"/><text x="40" y="106" fill="#86efac">+ max_iterations: 5</text>
      <rect x="24" y="128" width="640" height="20" fill="#14532d" opacity="0.4"/><text x="40" y="142" fill="#86efac">+ verification_step: structured_rubric</text>
      <text x="40" y="176" fill="#94a3b8">  eval_rubric: CommonVerificationRubric v1.2</text>
      <text x="40" y="200" fill="#64748b">  # redacted diff · evidence refs only</text>
      <text x="40" y="224" fill="#fbbf24">  meta-critic: "added verifier reduced</text>
      <text x="40" y="238" fill="#fbbf24">  hallucinations 18% across 2.1k runs"</text>
    </g>
    <!-- impact -->
    <text x="696" y="34" font-size="12" font-weight="600" fill="#57534e">Impact Analysis</text>
    <g transform="translate(696,44)">
      <rect width="200" height="56" rx="10" fill="#fafaf9" stroke="#e7e5e4"/><text x="16" y="24" font-size="9" fill="#78716c">Affected swarms</text><text x="16" y="46" font-size="20" font-weight="700" fill="#1c1917">87</text>
      <rect x="212" width="200" height="56" rx="10" fill="#fafaf9" stroke="#e7e5e4"/><text x="228" y="24" font-size="9" fill="#78716c">Est. success Δ</text><text x="228" y="46" font-size="20" font-weight="700" fill="#059669">+3.2%</text>
      <rect x="424" width="216" height="56" rx="10" fill="#fafaf9" stroke="#e7e5e4"/><text x="440" y="24" font-size="9" fill="#78716c">Est. savings /mo</text><text x="440" y="46" font-size="20" font-weight="700" fill="#059669">$196</text>
    </g>
    <text x="696" y="128" font-size="10" fill="#78716c">Domains: Trading (34) · Content (22) · Education (18) · Other (13)</text>
    <rect x="696" y="140" width="640" height="8" rx="4" fill="#f5f5f4"/><rect x="696" y="140" width="252" height="8" rx="4" fill="#4f46e5"/><rect x="948" y="140" width="164" height="8" rx="4" fill="#7c3aed"/><rect x="1112" y="140" width="134" height="8" rx="4" fill="#10b981"/>
    <rect x="696" y="200" width="180" height="38" rx="19" fill="#10b981"/><text x="786" y="223" text-anchor="middle" font-size="12" fill="#fff" font-weight="500">Approve &amp; Merge</text>
    <rect x="884" y="200" width="160" height="38" rx="19" fill="#fff" stroke="#e7e5e4"/><text x="964" y="223" text-anchor="middle" font-size="12" fill="#57534e">Request Changes</text>
    <rect x="1052" y="200" width="120" height="38" rx="19" fill="#fff" stroke="#fecaca"/><text x="1112" y="223" text-anchor="middle" font-size="12" fill="#dc2626">Reject</text>
  </g>
  <a href="ui_00_menu.svg" target="_top" aria-label="Open application menu"><title>Open application menu</title><rect x="16" y="8" width="100" height="42" fill="transparent" pointer-events="all"/></a>
</svg>
