<svg xmlns="http://www.w3.org/2000/svg" width="1440" height="1000" viewBox="0 0 1440 1000" font-family="Inter, system-ui, sans-serif">
  <defs><filter id="sh" x="-20%" y="-20%" width="140%" height="140%"><feDropShadow dx="0" dy="2" stdDeviation="6" flood-color="#1c1917" flood-opacity="0.06"/></filter></defs>
  <rect width="1440" height="1000" fill="#ffffff"/>
  <!-- HEADER -->
  <rect width="1440" height="56" fill="#fff"/><line x1="0" y1="56" x2="1440" y2="56" stroke="#e7e5e4"/>
  <rect x="24" y="15" width="26" height="26" rx="8" fill="#4f46e5"/><g stroke="#fff" stroke-width="1.4" fill="none"><circle cx="37" cy="24" r="1.9"/><circle cx="31" cy="34" r="1.9"/><circle cx="43" cy="34" r="1.9"/><path d="M37 26l-6 7M37 26l6 7M31.6 34h10.8"/></g>
  <text x="60" y="33" font-size="12" fill="#a8a29e">Knowledge</text>
  <rect x="560" y="13" width="320" height="30" rx="8" fill="#f5f5f4" stroke="#e7e5e4"/><text x="578" y="32" font-size="12" fill="#a8a29e">Search collections, chunks…  ⌘K</text>
  <circle cx="1360" cy="28" r="14" fill="#fafaf9" stroke="#e7e5e4"/><circle cx="1404" cy="28" r="15" fill="#eef2ff" stroke="#c7d2fe"/><text x="1404" y="32" text-anchor="middle" font-size="12" font-weight="600" fill="#4f46e5">NH</text>

  <text x="40" y="94" font-size="24" font-weight="700" fill="#1c1917">Knowledge Management Hub</text>
  <text x="40" y="116" font-size="13" fill="#78716c">Common + business-scoped RAG sources · seamless contribution from verified runs.</text>
  <rect x="1170" y="80" width="230" height="34" rx="17" fill="#1c1917"/><text x="1285" y="102" text-anchor="middle" font-size="12" fill="#fff">+ Add source · Sync from Git</text>

  <!-- filters -->
  <g transform="translate(40,134)" font-size="10" fill="#57534e">
    <rect width="80" height="24" rx="12" fill="#eef2ff" stroke="#c7d2fe"/><text x="40" y="16" text-anchor="middle" fill="#4f46e5">All types</text>
    <rect x="88" width="80" height="24" rx="12" fill="#fff" stroke="#e7e5e4"/><text x="128" y="16" text-anchor="middle">Common</text>
    <rect x="176" width="100" height="24" rx="12" fill="#fff" stroke="#e7e5e4"/><text x="226" y="16" text-anchor="middle">Business-scoped</text>
    <rect x="284" width="90" height="24" rx="12" fill="#fff" stroke="#e7e5e4"/><text x="329" y="16" text-anchor="middle">Health ▾</text>
  </g>

  <!-- Collection cards grid -->
  <g transform="translate(40,172)">
    <g>
      <rect width="332" height="150" rx="14" fill="#fff" stroke="#e7e5e4" filter="url(#sh)"/>
      <rect x="16" y="16" width="36" height="36" rx="10" fill="#eef2ff"/><path d="M28 26h12v20H28z" fill="none" stroke="#4f46e5" stroke-width="1.4"/>
      <text x="62" y="30" font-size="13" font-weight="600" fill="#1c1917">Trading Corpus (Common)</text>
      <rect x="62" y="38" width="70" height="16" rx="8" fill="#ecfdf5" stroke="#a7f3d0"/><circle cx="74" cy="46" r="3" fill="#10b981"/><text x="84" y="50" font-size="8" fill="#047857">Healthy</text>
      <g transform="translate(16,70)" font-size="9" fill="#78716c"><text x="0" y="12">Chunks</text><text x="0" y="28" font-size="13" fill="#1c1917" font-weight="600">12.4k</text><text x="110" y="12">Queries/d</text><text x="110" y="28" font-size="13" fill="#1c1917" font-weight="600">3.2k</text><text x="220" y="12">Contributed</text><text x="220" y="28" font-size="13" fill="#059669" font-weight="600">847</text></g>
      <text x="16" y="128" font-size="9" fill="#a8a29e">Last sync 14m ago · embed: text-3-large</text>
    </g>
    <g transform="translate(348,0)">
      <rect width="332" height="150" rx="14" fill="#fff" stroke="#e7e5e4" filter="url(#sh)"/>
      <rect x="16" y="16" width="36" height="36" rx="10" fill="#eef2ff"/><path d="M28 26h12v20H28z" fill="none" stroke="#4f46e5" stroke-width="1.4"/>
      <text x="62" y="30" font-size="13" font-weight="600" fill="#1c1917">Wuxia Lore</text>
      <rect x="62" y="38" width="70" height="16" rx="8" fill="#ecfdf5" stroke="#a7f3d0"/><circle cx="74" cy="46" r="3" fill="#10b981"/><text x="84" y="50" font-size="8" fill="#047857">Healthy</text>
      <g transform="translate(16,70)" font-size="9" fill="#78716c"><text x="0" y="12">Chunks</text><text x="0" y="28" font-size="13" fill="#1c1917" font-weight="600">8.1k</text><text x="110" y="12">Queries/d</text><text x="110" y="28" font-size="13" fill="#1c1917" font-weight="600">1.1k</text><text x="220" y="12">Contributed</text><text x="220" y="28" font-size="13" fill="#059669" font-weight="600">210</text></g>
      <text x="16" y="128" font-size="9" fill="#a8a29e">Git sync · bilingual EN/繁中</text>
    </g>
    <g transform="translate(696,0)">
      <rect width="332" height="150" rx="14" fill="#fff" stroke="#fde68a" filter="url(#sh)"/>
      <rect x="16" y="16" width="36" height="36" rx="10" fill="#fffbeb"/><path d="M28 26h12v20H28z" fill="none" stroke="#d97706" stroke-width="1.4"/>
      <text x="62" y="30" font-size="13" font-weight="600" fill="#1c1917">DSE ICT Notes</text>
      <rect x="62" y="38" width="80" height="16" rx="8" fill="#fefce8" stroke="#fde68a"/><circle cx="74" cy="46" r="3" fill="#eab308"/><text x="84" y="50" font-size="8" fill="#a16207">Reindexing</text>
      <g transform="translate(16,70)" font-size="9" fill="#78716c"><text x="0" y="12">Chunks</text><text x="0" y="28" font-size="13" fill="#1c1917" font-weight="600">5.6k</text><text x="110" y="12">Queries/d</text><text x="110" y="28" font-size="13" fill="#1c1917" font-weight="600">640</text><text x="220" y="12">Contributed</text><text x="220" y="28" font-size="13" fill="#059669" font-weight="600">98</text></g>
      <text x="16" y="128" font-size="9" fill="#a8a29e">Strapi sync · reindex 62%…</text>
    </g>
    <g transform="translate(1044,0)">
      <rect width="316" height="150" rx="14" fill="#fafaf9" stroke="#e7e5e4"/>
      <text x="20" y="30" font-size="13" font-weight="600" fill="#1c1917">Sync Jobs</text>
      <g transform="translate(20,44)" font-size="9" fill="#57534e"><text x="0" y="12">Git · Trading Corpus</text><rect x="220" y="0" width="60" height="14" rx="7" fill="#ecfdf5"/><text x="250" y="10" text-anchor="middle" font-size="8" fill="#047857">nightly</text><text x="0" y="40">Strapi · DSE Notes</text><rect x="220" y="28" width="60" height="14" rx="7" fill="#fefce8"/><text x="250" y="38" text-anchor="middle" font-size="8" fill="#a16207">running</text><text x="0" y="68">URL · Market feeds</text><rect x="220" y="56" width="60" height="14" rx="7" fill="#f5f5f4"/><text x="250" y="66" text-anchor="middle" font-size="8" fill="#78716c">hourly</text></g>
      <text x="20" y="140" font-size="9" fill="#a8a29e">URLs submitted as untrusted refs · server-side ingestion only</text>
    </g>
  </g>

  <!-- Detail drawer: tabs -->
  <text x="40" y="366" font-size="16" font-weight="600" fill="#1c1917">Trading Corpus (Common) — Detail</text>
  <g transform="translate(40,382)" font-size="11">
    <line x1="0" y1="28" x2="1320" y2="28" stroke="#e7e5e4"/>
    <text x="8" y="18" font-weight="600" fill="#1c1917">Sources</text><rect x="0" y="26" width="56" height="2.5" fill="#1c1917"/>
    <text x="90" y="18" fill="#78716c">Search Test</text><text x="190" y="18" fill="#78716c">Config</text><text x="270" y="18" fill="#78716c">Contributions</text><text x="390" y="18" fill="#78716c">Analytics</text>
  </g>

  <!-- Sources table + search test -->
  <g transform="translate(40,426)">
    <rect width="820" height="404" rx="14" fill="#fff" stroke="#e7e5e4" filter="url(#sh)"/>
    <g font-size="10" fill="#a8a29e"><text x="20" y="28">SOURCE</text><text x="360" y="28">TYPE</text><text x="470" y="28">STATUS</text><text x="600" y="28">CHUNKS</text><text x="700" y="28">ACTIONS</text></g>
    <line x1="16" y1="36" x2="804" y2="36" stroke="#f5f5f4"/>
    <g font-size="11" fill="#44403c">
      <g transform="translate(0,46)"><text x="20" y="16" fill="#1c1917">market_reports_2026.md</text><text x="360" y="16">Markdown</text><rect x="462" y="4" width="60" height="16" rx="8" fill="#ecfdf5" stroke="#a7f3d0"/><text x="492" y="16" text-anchor="middle" font-size="8" fill="#047857">Indexed</text><text x="600" y="16">4.2k</text><text x="700" y="16" fill="#4f46e5">Preview · Reindex</text><line x1="16" y1="30" x2="804" y2="30" stroke="#f5f5f4"/></g>
      <g transform="translate(0,84)"><text x="20" y="16" fill="#1c1917">sentiment_dataset.csv</text><text x="360" y="16">CSV</text><rect x="462" y="4" width="70" height="16" rx="8" fill="#fefce8" stroke="#fde68a"/><text x="497" y="16" text-anchor="middle" font-size="8" fill="#a16207">Processing</text><text x="600" y="16">—</text><text x="700" y="16" fill="#4f46e5">View job</text><line x1="16" y1="30" x2="804" y2="30" stroke="#f5f5f4"/></g>
      <g transform="translate(0,122)"><text x="20" y="16" fill="#1c1917">strategy_wiki (Git)</text><text x="360" y="16">Git sync</text><rect x="462" y="4" width="60" height="16" rx="8" fill="#ecfdf5" stroke="#a7f3d0"/><text x="492" y="16" text-anchor="middle" font-size="8" fill="#047857">Indexed</text><text x="600" y="16">6.8k</text><text x="700" y="16" fill="#4f46e5">Preview · Remove</text><line x1="16" y1="30" x2="804" y2="30" stroke="#f5f5f4"/></g>
      <g transform="translate(0,160)"><text x="20" y="16" fill="#1c1917">pasted_notes.txt</text><text x="360" y="16">Text</text><rect x="462" y="4" width="70" height="16" rx="8" fill="#fef2f2" stroke="#fecaca"/><text x="497" y="16" text-anchor="middle" font-size="8" fill="#dc2626">Quarantined</text><text x="600" y="16">—</text><text x="700" y="16" fill="#4f46e5">View scan</text></g>
    </g>
    <!-- drag drop -->
    <rect x="20" y="230" width="780" height="70" rx="12" fill="#fafaf9" stroke="#d6d3d1" stroke-dasharray="6 4"/>
    <text x="410" y="262" text-anchor="middle" font-size="12" fill="#78716c">Drag &amp; drop files · or paste text · or "Sync from Git"</text>
    <text x="410" y="282" text-anchor="middle" font-size="10" fill="#a8a29e">Server-defined type/size/ownership/retention shown before submit · client checks aren't authorization</text>
    <text x="20" y="336" font-size="11" font-weight="600" fill="#57534e">Chunking &amp; indexing config</text>
    <g transform="translate(20,346)" font-size="10" fill="#57534e"><rect width="150" height="26" rx="8" fill="#fafaf9" stroke="#e7e5e4"/><text x="12" y="17">Size: 512 tokens</text><rect x="160" width="150" height="26" rx="8" fill="#fafaf9" stroke="#e7e5e4"/><text x="172" y="17">Overlap: 64</text><rect x="320" width="180" height="26" rx="8" fill="#fafaf9" stroke="#e7e5e4"/><text x="332" y="17">Hybrid (BM25 + vector)</text></g>
  </g>

  <!-- search test + contribution -->
  <g transform="translate(880,426)">
    <rect width="480" height="404" rx="14" fill="#fff" stroke="#e7e5e4" filter="url(#sh)"/>
    <text x="20" y="30" font-size="13" font-weight="600" fill="#1c1917">Search Test</text>
    <rect x="20" y="42" width="440" height="34" rx="10" fill="#fafaf9" stroke="#e7e5e4"/><text x="34" y="63" font-size="11" fill="#a8a29e">"bullish divergence patterns"</text>
    <g transform="translate(20,90)" font-size="10">
      <rect width="440" height="52" rx="10" fill="#fafaf9" stroke="#e7e5e4"/><rect x="380" y="12" width="48" height="16" rx="8" fill="#ecfdf5"/><text x="404" y="24" text-anchor="middle" font-size="9" fill="#047857">0.94</text><text x="14" y="22" fill="#1c1917">market_reports_2026.md · chunk 128</text><text x="14" y="40" fill="#78716c">"...divergence between price and RSI often precedes..."</text>
      <g transform="translate(0,60)"><rect width="440" height="52" rx="10" fill="#fafaf9" stroke="#e7e5e4"/><rect x="380" y="12" width="48" height="16" rx="8" fill="#eef2ff"/><text x="404" y="24" text-anchor="middle" font-size="9" fill="#4f46e5">0.88</text><text x="14" y="22" fill="#1c1917">strategy_wiki · chunk 42</text><text x="14" y="40" fill="#78716c">"...confirm with volume before entry..."</text></g>
    </g>
    <g transform="translate(20,224)" font-size="9" fill="#57534e"><text x="0" y="0">Relevance feedback:</text><rect x="120" y="-12" width="28" height="18" rx="9" fill="#ecfdf5"/><text x="134" y="1" text-anchor="middle" fill="#047857">👍</text><rect x="152" y="-12" width="28" height="18" rx="9" fill="#fef2f2"/><text x="166" y="1" text-anchor="middle" fill="#dc2626">👎</text></g>
    <line x1="20" y1="248" x2="460" y2="248" stroke="#f5f5f4"/>
    <text x="20" y="274" font-size="13" font-weight="600" fill="#1c1917">Contribution Queue (verified runs)</text>
    <g transform="translate(20,286)">
      <rect width="440" height="60" rx="10" fill="#f5f3ff" stroke="#ddd6fe"/>
      <text x="14" y="24" font-size="10" font-weight="600" fill="#6d28d9">Distilled insight from run-4421 (verified)</text>
      <text x="14" y="40" font-size="9" fill="#57534e">provenance retained · awaiting review</text>
      <rect x="14" y="42" width="80" height="14" rx="7" fill="#1c1917"/><text x="54" y="52" text-anchor="middle" font-size="8" fill="#fff">Approve</text>
    </g>
    <text x="20" y="380" font-size="9" fill="#a8a29e">Item can't be promoted to Common solely because retrieved/generated · verification state explicit.</text>
  </g>
</svg>
