<svg xmlns="http://www.w3.org/2000/svg" width="1440" height="1000" viewBox="0 0 1440 1000" font-family="Inter, system-ui, sans-serif">
  <defs><filter id="sh" x="-20%" y="-20%" width="140%" height="140%"><feDropShadow dx="0" dy="2" stdDeviation="6" flood-color="#1c1917" flood-opacity="0.06"/></filter></defs>
  <rect width="1440" height="1000" fill="#ffffff"/>
  <!-- HEADER -->
  <rect width="1440" height="56" fill="#fff"/><line x1="0" y1="56" x2="1440" y2="56" stroke="#e7e5e4"/>
  <rect x="24" y="15" width="26" height="26" rx="8" fill="#4f46e5"/><g stroke="#fff" stroke-width="1.4" fill="none"><circle cx="37" cy="24" r="1.9"/><circle cx="31" cy="34" r="1.9"/><circle cx="43" cy="34" r="1.9"/><path d="M37 26l-6 7M37 26l6 7M31.6 34h10.8"/></g>
  <text x="60" y="33" font-size="12" fill="#a8a29e">Eval &amp; Self-Improvement</text>
  <rect x="560" y="13" width="320" height="30" rx="8" fill="#f5f5f4" stroke="#e7e5e4"/><text x="578" y="32" font-size="12" fill="#a8a29e">Search commons, proposals…  ⌘K</text>
  <circle cx="1360" cy="28" r="14" fill="#fafaf9" stroke="#e7e5e4"/><circle cx="1404" cy="28" r="15" fill="#eef2ff" stroke="#c7d2fe"/><text x="1404" y="32" text-anchor="middle" font-size="12" font-weight="600" fill="#4f46e5">NH</text>

  <text x="40" y="94" font-size="24" font-weight="700" fill="#1c1917">Eval &amp; Self-Improvement Dashboard</text>
  <text x="40" y="116" font-size="13" fill="#78716c">Evidence-based L1/L2/L3 quality · improvement campaigns · meta-critic insights.</text>

  <!-- scorecards -->
  <g transform="translate(40,138)">
    <rect width="256" height="96" rx="14" fill="#fff" stroke="#e7e5e4" filter="url(#sh)"/><text x="20" y="28" font-size="11" fill="#78716c">Global success</text><text x="20" y="60" font-size="28" font-weight="700" fill="#059669">91.4%</text><text x="20" y="80" font-size="10" fill="#059669">↑ 1.2% this month</text>
    <g transform="translate(272,0)"><rect width="256" height="96" rx="14" fill="#fff" stroke="#e7e5e4" filter="url(#sh)"/><text x="20" y="28" font-size="11" fill="#78716c">Token efficiency</text><text x="20" y="60" font-size="28" font-weight="700" fill="#1c1917">+8%</text><text x="20" y="80" font-size="10" fill="#78716c">vs baseline</text></g>
    <g transform="translate(544,0)"><rect width="256" height="96" rx="14" fill="#fff" stroke="#e7e5e4" filter="url(#sh)"/><text x="20" y="28" font-size="11" fill="#78716c">Verifier pass rate</text><text x="20" y="60" font-size="28" font-weight="700" fill="#1c1917">96.2%</text><text x="20" y="80" font-size="10" fill="#059669">↑ 4.1%</text></g>
    <g transform="translate(816,0)"><rect width="256" height="96" rx="14" fill="#fff" stroke="#ddd6fe" filter="url(#sh)"/><text x="20" y="28" font-size="11" fill="#78716c">Proposals merged /mo</text><text x="20" y="60" font-size="28" font-weight="700" fill="#7c3aed">14</text><text x="20" y="80" font-size="10" fill="#78716c">8 from meta-critic</text></g>
    <g transform="translate(1088,0)"><rect width="232" height="96" rx="14" fill="#fff" stroke="#e7e5e4" filter="url(#sh)"/><text x="20" y="28" font-size="11" fill="#78716c">Held-out coverage</text><text x="20" y="60" font-size="28" font-weight="700" fill="#1c1917">78%</text><text x="20" y="80" font-size="10" fill="#78716c">of common agents</text></g>
  </g>

  <!-- trend chart -->
  <g transform="translate(40,250)">
    <rect width="820" height="220" rx="14" fill="#fff" stroke="#e7e5e4" filter="url(#sh)"/>
    <text x="20" y="30" font-size="13" font-weight="600" fill="#1c1917">Score Trends (L1 / L2 / L3)</text>
    <g font-size="9" fill="#78716c"><text x="640" y="30">■ L1 validation</text><text x="640" y="46" fill="#4f46e5">■ L2 rubric</text><text x="640" y="62" fill="#7c3aed">■ L3 preference</text></g>
    <line x1="40" y1="180" x2="780" y2="180" stroke="#e7e5e4"/><line x1="40" y1="60" x2="40" y2="180" stroke="#e7e5e4"/>
    <polyline points="40,120 150,116 260,110 370,108 480,100 590,96 700,92 780,90" fill="none" stroke="#10b981" stroke-width="2"/>
    <polyline points="40,140 150,136 260,132 370,124 480,120 590,110 700,106 780,100" fill="none" stroke="#4f46e5" stroke-width="2"/>
    <polyline points="40,160 150,156 260,150 370,148 480,140 590,136 700,130 780,126" fill="none" stroke="#7c3aed" stroke-width="2" stroke-dasharray="4 2"/>
    <text x="20" y="210" font-size="9" fill="#a8a29e">Aggregate scores never hide a failed lower-layer gate.</text>
  </g>

  <!-- meta-critic insights -->
  <g transform="translate(880,250)">
    <rect width="480" height="220" rx="14" fill="#f5f3ff" stroke="#ddd6fe" filter="url(#sh)"/>
    <text x="20" y="30" font-size="13" font-weight="600" fill="#6d28d9">Meta-Critic Insights</text>
    <g font-size="11" fill="#57534e">
      <g transform="translate(20,44)"><rect width="440" height="48" rx="10" fill="#fff" stroke="#e7e5e4"/><text x="14" y="22" font-weight="600" fill="#1c1917">Top failure mode</text><text x="14" y="40" fill="#78716c">Ungrounded citations in synthesis (34% of fails)</text></g>
      <g transform="translate(20,100)"><rect width="440" height="48" rx="10" fill="#fff" stroke="#e7e5e4"/><text x="14" y="22" font-weight="600" fill="#1c1917">Token waste hotspot</text><text x="14" y="40" fill="#78716c">Redundant re-fetch in DataFetcher v2.1</text></g>
      <g transform="translate(20,156)"><rect width="440" height="48" rx="10" fill="#fff" stroke="#e7e5e4"/><text x="14" y="22" font-weight="600" fill="#1c1917">Suggested pattern change</text><text x="14" y="40" fill="#78716c">Add cache node before parallel group (+12% eff.)</text></g>
    </g>
  </g>

  <!-- Proposal queue -->
  <text x="40" y="510" font-size="16" font-weight="600" fill="#1c1917">Proposal Queue</text>
  <g transform="translate(40,526)">
    <rect width="820" height="300" rx="14" fill="#fff" stroke="#e7e5e4" filter="url(#sh)"/>
    <g font-size="10" fill="#a8a29e"><text x="20" y="28">TARGET COMMON</text><text x="300" y="28">SOURCE</text><text x="440" y="28">EXPECTED IMPACT</text><text x="640" y="28">ACTION</text></g>
    <line x1="16" y1="36" x2="804" y2="36" stroke="#f5f5f4"/>
    <g font-size="11" fill="#44403c">
      <g transform="translate(0,46)"><text x="20" y="16" fill="#1c1917" font-weight="500">CommonReportAgent → v3.0</text><text x="300" y="16" fill="#7c3aed">meta-critic</text><text x="440" y="16" fill="#059669">+18% ↓ hallucination</text><rect x="632" y="2" width="90" height="20" rx="10" fill="#1c1917"/><text x="677" y="16" text-anchor="middle" font-size="9" fill="#fff">Review diff</text><line x1="16" y1="30" x2="804" y2="30" stroke="#f5f5f4"/></g>
      <g transform="translate(0,84)"><text x="20" y="16" fill="#1c1917" font-weight="500">CommonMarketPredictor → v2.5</text><text x="300" y="16">@you</text><text x="440" y="16" fill="#059669">+3.2% success</text><rect x="632" y="2" width="90" height="20" rx="10" fill="#1c1917"/><text x="677" y="16" text-anchor="middle" font-size="9" fill="#fff">Review diff</text><line x1="16" y1="30" x2="804" y2="30" stroke="#f5f5f4"/></g>
      <g transform="translate(0,122)"><text x="20" y="16" fill="#1c1917" font-weight="500">CommonDataFetcher → v2.2</text><text x="300" y="16" fill="#7c3aed">meta-critic</text><text x="440" y="16" fill="#059669">-15% tokens</text><rect x="632" y="2" width="90" height="20" rx="10" fill="#1c1917"/><text x="677" y="16" text-anchor="middle" font-size="9" fill="#fff">Review diff</text><line x1="16" y1="30" x2="804" y2="30" stroke="#f5f5f4"/></g>
      <g transform="translate(0,160)"><text x="20" y="16" fill="#1c1917" font-weight="500">CommonSentiment → v2.0</text><text x="300" y="16">@ava</text><text x="440" y="16" fill="#059669">+5% preference</text><rect x="632" y="2" width="90" height="20" rx="10" fill="#1c1917"/><text x="677" y="16" text-anchor="middle" font-size="9" fill="#fff">Review diff</text></g>
    </g>
    <line x1="16" y1="240" x2="804" y2="240" stroke="#f5f5f4"/>
    <text x="20" y="266" font-size="11" font-weight="600" fill="#57534e">Campaign Launcher</text>
    <text x="20" y="284" font-size="10" fill="#78716c">Select underperforming commons → run batch eval → auto-generate proposals.</text>
    <rect x="620" y="252" width="184" height="34" rx="17" fill="#7c3aed"/><text x="712" y="274" text-anchor="middle" font-size="12" fill="#fff">Run Batch Eval Campaign</text>
  </g>

  <!-- history timeline + A/B -->
  <text x="880" y="510" font-size="16" font-weight="600" fill="#1c1917">Improvement History &amp; A/B Results</text>
  <g transform="translate(880,526)">
    <rect width="480" height="300" rx="14" fill="#fff" stroke="#e7e5e4" filter="url(#sh)"/>
    <text x="20" y="28" font-size="11" font-weight="600" fill="#57534e">Merged proposals (before → after)</text>
    <g transform="translate(20,40)">
      <rect width="440" height="52" rx="10" fill="#fafaf9" stroke="#e7e5e4"/><circle cx="20" cy="26" r="6" fill="#10b981"/><text x="36" y="22" font-size="11" fill="#1c1917">VerifierNode v2.9 → v3.0</text><text x="36" y="40" font-size="9" fill="#059669">success 95% → 97% · tokens 720 → 640</text>
      <g transform="translate(0,60)"><rect width="440" height="52" rx="10" fill="#fafaf9" stroke="#e7e5e4"/><circle cx="20" cy="26" r="6" fill="#10b981"/><text x="36" y="22" font-size="11" fill="#1c1917">DataFetcher v2.0 → v2.1</text><text x="36" y="40" font-size="9" fill="#059669">latency 1.8s → 1.4s · +8% efficiency</text></g>
    </g>
    <line x1="20" y1="176" x2="460" y2="176" stroke="#f5f5f4"/>
    <text x="20" y="200" font-size="11" font-weight="600" fill="#57534e">A/B Experiments</text>
    <g transform="translate(20,212)">
      <rect width="440" height="70" rx="10" fill="#eef2ff" stroke="#c7d2fe"/>
      <text x="14" y="24" font-size="11" fill="#1c1917">ReportAgent v3.0 vs v2.9</text>
      <text x="14" y="42" font-size="9" fill="#57534e">v3.0 leads · p&lt;0.01 · 1.2k samples each</text>
      <rect x="14" y="48" width="120" height="16" rx="8" fill="#1c1917"/><text x="74" y="60" text-anchor="middle" font-size="9" fill="#fff">Promote winner</text>
    </g>
  </g>
  <a href="ui_00_menu.svg" target="_top" aria-label="Open application menu"><title>Open application menu</title><rect x="16" y="8" width="100" height="42" fill="transparent" pointer-events="all"/></a>
</svg>
